<svg xmlns="http://www.w3.org/2000/svg" viewBox="0 0 300 38" role="img" aria-label="Kingmaker heading vine flourish">
<style>.g{fill:#b98532}.l{fill:#557449;stroke:#78936a;stroke-width:.6}.v{fill:none;stroke:#557449;stroke-width:2.2;stroke-linecap:round}.r{fill:none;stroke:#b98532;stroke-width:2}</style>
<path class="r" d="M4 21h74M222 21h74"/><path class="v" d="M78 21c22-18 47-18 72-3 25-15 50-15 72 3"/>
<g class="l"><path d="M91 19c5-10 13-13 21-9-4 9-12 13-21 9Z"/><path d="M111 12c2-9 9-14 17-12 0 8-7 14-17 12Z"/><path d="M126 23c5-8 12-10 20-6-4 7-12 10-20 6Z"/><path d="M209 19c-5-10-13-13-21-9 4 9 12 13 21 9Z"/><path d="M189 12c-2-9-9-14-17-12 0 8 7 14 17 12Z"/><path d="M174 23c-5-8-12-10-20-6 4 7 12 10 20 6Z"/></g>
<path class="g" d="m145 19 5-8 5 8-5 5Z"/>
</svg>